<svg xmlns="http://www.w3.org/2000/svg" fill="none" viewBox="0 0 1336 376"><defs/><g clip-path="url(#clip0)"><rect width="1336" height="376" fill="#fff" rx="20"/><path fill="url(#paint0_linear)" d="M-40 425a6 6 0 006 6h742a6 6 0 006-6v-586a6 6 0 00-6-6H-34a6 6 0 00-6 6v586z"/><path fill="url(#paint1_linear)" d="M0 0h769v622H0z" transform="matrix(1 0 0 -1 -40 478)"/><path fill="url(#paint2_linear)" d="M538-43h969v628H538z"/><path fill="#087BE8" d="M-150-228l33 481 142-17 179-29-223-435h-131z"/><path fill="#FFBF13" d="M-89-187l33 481 141-17 180-29L37-187H-89z"/><ellipse fill="#1779F2" rx="405.9" ry="323.6" transform="matrix(1 0 0 -1 706 -171)"/><path fill="url(#paint3_linear)" d="M220 40C108 89 28 314-100 239c-49-29 124-416 171-548 20-58 203 0 386 43 182 43 170-79 317-28 148 51 135 138 209 43s248-5 294-23c101-39 48-243 220-334C1515-683 58-496 5-487c-184 32-290 993-47 964 244-29 424 212 561 287 231 125 155-164 141-252-13-88 29-181 174-148 146 33 114-192 291-116s224-95 186-196c-37-100 157-152 172-201 14-49 25-63-107-171 18 67 42 179-104 140-145-38-177-6-191 82-12 81-53 134-82 155-92 66-297 110-424 35C449 16 332-9 220 40z"/></g><defs><linearGradient id="paint0_linear" x1="337" x2="337" y1="431.3" y2="-167.1" gradientUnits="userSpaceOnUse"><stop stop-color="#FEE3E9"/><stop offset="1" stop-color="#FFFBE3"/></linearGradient><linearGradient id="paint1_linear" x1="232.8" x2="535.7" y1="481.5" y2="-102.3" gradientUnits="userSpaceOnUse"><stop offset=".1" stop-color="#FFB5BF"/><stop offset="1" stop-color="#D86E7C"/></linearGradient><linearGradient id="paint2_linear" x1="714.5" x2="1379.7" y1="271" y2="-106.6" gradientUnits="userSpaceOnUse"><stop stop-color="#01C2A9"/><stop offset="1" stop-color="#01C2A9"/></linearGradient><linearGradient id="paint3_linear" x1="1311.7" x2="115.6" y1="110.2" y2="842.1" gradientUnits="userSpaceOnUse"><stop stop-color="#087BE8" stop-opacity="0"/><stop offset=".4" stop-color="#1779F2"/><stop offset=".7" stop-color="#175EB7"/><stop offset="1" stop-color="#3B36D5"/></linearGradient><clipPath id="clip0"><rect width="1336" height="376" fill="#fff" rx="20"/></clipPath></defs></svg>